<svg id="antique-elegant-building-with-columns_4_" data-name="antique-elegant-building-with-columns(4)" xmlns="http://www.w3.org/2000/svg" width="38.987" height="41.563" viewBox="0 0 38.987 41.563">
  <g id="Group_227" data-name="Group 227" transform="translate(0 0)">
    <path id="Path_435" data-name="Path 435" d="M46.864,164.282a.662.662,0,0,0-.662.662v12.817a.663.663,0,0,0,.662.662h3.2a.663.663,0,0,0,.662-.662V164.944a.662.662,0,0,0-.662-.662Z" transform="translate(-41.797 -144.04)" fill="'none'"/>
    <path id="Path_436" data-name="Path 436" d="M150.882,164.282a.662.662,0,0,0-.662.662v12.817a.663.663,0,0,0,.662.662h3.2a.663.663,0,0,0,.662-.662V164.944a.662.662,0,0,0-.662-.662Z" transform="translate(-132.998 -144.04)" fill="'none'"/>
    <path id="Path_437" data-name="Path 437" d="M254.914,164.282a.662.662,0,0,0-.662.662v12.817a.662.662,0,0,0,.662.662h3.2a.663.663,0,0,0,.662-.662V164.944a.662.662,0,0,0-.662-.662Z" transform="translate(-224.211 -144.04)" fill="'none'"/>
    <path id="Path_438" data-name="Path 438" d="M66.574,137.418v-1.6a.662.662,0,0,0-.662-.662H33.871a.662.662,0,0,0-.662.662v1.6a.663.663,0,0,0,.662.662H65.912A.662.662,0,0,0,66.574,137.418Z" transform="translate(-30.405 -118.501)" fill="'none'"/>
    <path id="Path_439" data-name="Path 439" d="M56.924,106.023H21.944a.662.662,0,0,0-.662.662v1.6a.663.663,0,0,0,.662.662H56.924a.663.663,0,0,0,.662-.662v-1.6A.662.662,0,0,0,56.924,106.023Z" transform="translate(-19.947 -92.959)" fill="'none'"/>
    <path id="Path_440" data-name="Path 440" d="M49.01,10.458,30.257.083a.662.662,0,0,0-.642,0L10.791,10.5a.662.662,0,0,0,.32,1.242H48.775a.662.662,0,0,0,.235-1.281ZM29.936,9.43A2.649,2.649,0,1,1,32.586,6.78,2.652,2.652,0,0,1,29.936,9.43Z" transform="translate(-10.45 0)" fill="'none'"/>
    <ellipse id="Ellipse_25" data-name="Ellipse 25" cx="1.325" cy="1.325" rx="1.325" ry="1.325" transform="translate(18.162 5.456)" fill="'none'"/>
    <path id="Path_441" data-name="Path 441" d="M33.2,286.7a.663.663,0,0,0,.662.662h32.04a.662.662,0,0,0,.662-.662v-1.6a.662.662,0,0,0-.662-.662H33.865a.662.662,0,0,0-.662.662Z" transform="translate(-30.399 -249.384)" fill="'none'"/>
    <path id="Path_442" data-name="Path 442" d="M56.923,313.56H21.944a.663.663,0,0,0-.662.662v1.6a.662.662,0,0,0,.662.662H56.924a.663.663,0,0,0,.662-.662v-1.6A.664.664,0,0,0,56.923,313.56Z" transform="translate(-19.947 -274.924)" fill="'none'"/>
  </g>
</svg>
