<svg id="cabin" xmlns="http://www.w3.org/2000/svg" width="45.741" height="45.739" viewBox="0 0 45.741 45.739">
  <path id="Path_344" data-name="Path 344" d="M45.723,23.085a3.051,3.051,0,0,0-1.142-2.073l-4.177-3.1v-7.58h-6.1v3.058L22.915,4.947,1.191,20.266a3.053,3.053,0,0,0,3.687,4.867l.459-.319v1.831a2.66,2.66,0,0,0,0,4.811v2.828a2.66,2.66,0,0,0,0,4.811v2.828A2.668,2.668,0,0,0,6.48,47H39.26a2.668,2.668,0,0,0,.381-5.308v-2.37a2.661,2.661,0,0,0,0-5.269v-2.37a2.661,2.661,0,0,0,0-5.269V24.959l1.149.84a3.05,3.05,0,0,0,4.932-2.713ZM35.83,11.863h3.049v4.921L35.83,14.523Zm-18.3,27.5v2.292H6.862V39.363ZM6.862,34.016V31.724H17.534v2.292ZM6.48,35.544H17.534v2.292H6.48a1.146,1.146,0,0,1,0-2.292Zm11.054,9.93H6.48a1.146,1.146,0,0,1,0-2.292H17.534Zm9.148,0H19.059V31.724h7.623v13.75Zm1.525-11.458V31.724h9.91v2.292Zm0,7.639V39.363h9.91v2.292Zm12.2,2.674a1.146,1.146,0,0,1-1.143,1.146H28.207V43.182H39.26A1.146,1.146,0,0,1,40.4,44.328Zm0-7.639a1.146,1.146,0,0,1-1.143,1.146H28.207V35.544H39.26A1.146,1.146,0,0,1,40.4,36.689Zm0-7.639A1.146,1.146,0,0,1,39.26,30.2H6.48a1.146,1.146,0,0,1,0-2.292H39.26A1.146,1.146,0,0,1,40.4,29.051ZM25.92,26.377H23.633V24.085H25.92Zm0-3.819H23.633V20.266H25.92Zm-3.812,0H19.821V20.266h2.287Zm-2.287,1.528h2.287v2.292H19.821Zm10.673,0h7.623v2.292H27.444V18.738H18.3v7.639H6.862V24.085h8.386a.764.764,0,0,0,0-1.528H8.584l3.3-2.292H16.01V18.738H14.082l3.3-2.292H28l1.827,1.335,1.308.956h-1.4v1.528h3.491l3.135,2.292H30.494a.764.764,0,0,0,0,1.528ZM19.579,14.919l3.246-2.255,3.084,2.255Zm24.3,9.451a1.525,1.525,0,0,1-2.144.228L39.6,23.037l-.653-.48h0l-3.134-2.292h0L28.5,14.919h0l-5.649-4.13L16.9,14.919h0l-7.7,5.347h0L5.862,22.59h0l-.27.19L3.979,23.9A1.525,1.525,0,0,1,1.538,22.49a1.509,1.509,0,0,1,.556-.995l20.8-14.664,11.412,8.462h0l1.675,1.242,7.669,5.686a1.53,1.53,0,0,1,.227,2.148Z" transform="translate(0 -1.262)" fill="'none'"/>
  <ellipse id="Ellipse_22" data-name="Ellipse 22" cy="0.5" ry="0.5" transform="translate(20.466 33.974)" fill="'none'"/>
  <path id="Path_345" data-name="Path 345" d="M46.746,10.494a.738.738,0,1,0-.529-.216A.783.783,0,0,0,46.746,10.494Z" transform="translate(-10.906 0.415)" fill="'none'"/>
  <path id="Path_346" data-name="Path 346" d="M50.746,9.471a.744.744,0,0,0,.745-.745V5.746a.745.745,0,1,0-1.49,0v2.98A.745.745,0,0,0,50.746,9.471Z" transform="translate(-14.12 -1.276)" fill="'none'"/>
  <path id="Path_347" data-name="Path 347" d="M50.746,2.981a.744.744,0,0,0,.745-.745V.746a.745.745,0,1,0-1.49,0v1.49A.745.745,0,0,0,50.746,2.981Z" transform="translate(-14.12 -0.001)" fill="'none'"/>
  <path id="Path_348" data-name="Path 348" d="M46.746,6.981a.744.744,0,0,0,.745-.745V4.746a.745.745,0,0,0-1.49,0v1.49A.745.745,0,0,0,46.746,6.981Z" transform="translate(-10.906 -1.021)" fill="'none'"/>
  <path id="Path_349" data-name="Path 349" d="M46.746,2.236a.744.744,0,0,0,.745-.745V.746a.745.745,0,0,0-1.49,0v.745A.745.745,0,0,0,46.746,2.236Z" transform="translate(-10.906 -0.001)" fill="'none'"/>
</svg>
