<svg xmlns="http://www.w3.org/2000/svg" width="44.115" height="44.114" viewBox="0 0 44.115 44.114">
  <g id="Group_185" data-name="Group 185" transform="translate(0 0)">
    <g id="Group_184" data-name="Group 184">
      <path id="Path_398" data-name="Path 398" d="M43.25,8.766H41.455V6.971a.865.865,0,0,0-.865-.865H36.762a.865.865,0,1,0,0,1.73h2.963V9.631a.865.865,0,0,0,.865.865h1.795v2.227h-1.1a.865.865,0,0,0,0,1.73h1.1v1.867H38.363a.865.865,0,0,0,0,1.73h4.022v1.29H7.076L5.95,16.831a.865.865,0,0,0-1.578,0L3.246,19.34H1.73V14.453h1.1a.865.865,0,1,0,0-1.73H1.73V10.857H4.324a.865.865,0,1,0,0-1.73H1.73V7.836H30.39a.865.865,0,1,0,0-1.73H24.6V3.461a.866.866,0,0,0-.139-.47L22.784.4A.865.865,0,0,0,22.058,0h0A.865.865,0,0,0,21.332.4L19.65,2.991a.865.865,0,0,0-.139.47V6.106H.865A.865.865,0,0,0,0,6.971V9.983s0,.006,0,.008S0,10,0,10v3.58s0,.006,0,.008,0,.006,0,.008v6.609a.865.865,0,0,0,.865.865h2.94a.865.865,0,0,0,.789-.511L5.161,19.3l.566,1.262a.865.865,0,0,0,.789.511H19.511v22.18a.865.865,0,0,0,.865.865h3.362a.865.865,0,0,0,.865-.865V21.071H43.25a.865.865,0,0,0,.865-.865V9.631A.865.865,0,0,0,43.25,8.766ZM22.057,2.457l.816,1.26v2.39H21.241V3.717h0Zm.816,39.928H21.241V21.07h1.632Z" transform="translate(0 -0.001)" fill="'none'"/>
    </g>
  </g>
</svg>
