<svg id="Group_126" data-name="Group 126" xmlns="http://www.w3.org/2000/svg" width="70.101" height="70.101" viewBox="0 0 70.101 70.101">
  <g id="Group_125" data-name="Group 125">
    <path id="Path_153" data-name="Path 153" d="M156,169.845a2.769,2.769,0,0,0,2.769,2.769h8.307v8.307a2.769,2.769,0,1,0,5.538,0v-8.307h8.307a2.769,2.769,0,1,0,0-5.538h-8.307v-8.307a2.769,2.769,0,0,0-5.538,0v8.307h-8.307A2.769,2.769,0,0,0,156,169.845Z" transform="translate(-134.795 -134.795)" fill="'none'"/>
    <path id="Path_154" data-name="Path 154" d="M136.576,19.411l3.582-1.484a2.769,2.769,0,0,0-2.12-5.117l-3.582,1.484a2.769,2.769,0,0,0,2.12,5.117Z" transform="translate(-114.601 -10.855)" fill="'none'"/>
    <path id="Path_155" data-name="Path 155" d="M35.05,0a2.738,2.738,0,1,0,0,5.477A29.574,29.574,0,1,1,5.477,35.05,2.738,2.738,0,1,0,0,35.05,35.05,35.05,0,1,0,35.05,0Z" fill="'none'"/>
    <path id="Path_156" data-name="Path 156" d="M63.95,66.692l2.741-2.741a2.769,2.769,0,1,0-3.916-3.916l-2.741,2.741a2.769,2.769,0,0,0,3.916,3.916Z" transform="translate(-51.023 -51.024)" fill="'none'"/>
    <path id="Path_157" data-name="Path 157" d="M14.311,141.656a2.769,2.769,0,0,0,3.618-1.5l1.484-3.582a2.769,2.769,0,1,0-5.117-2.12l-1.484,3.582A2.769,2.769,0,0,0,14.311,141.656Z" transform="translate(-10.856 -114.602)" fill="'none'"/>
  </g>
</svg>
