<svg xmlns="http://www.w3.org/2000/svg" width="49.702" height="33.721" viewBox="0 0 49.702 33.721">
  <g id="Group_3925" data-name="Group 3925" transform="translate(-936 -688)">
    <path id="Path_408" data-name="Path 408" d="M47.506,50.6,24.7,42.549a1.419,1.419,0,0,0-.945,0L.947,50.6a1.42,1.42,0,0,0,0,2.676L23.751,61.38a1.419,1.419,0,0,0,.951,0l22.807-8.108a1.42,1.42,0,0,0,0-2.676Z" transform="translate(936 645.532)" fill="'none'"/>
    <path id="Path_409" data-name="Path 409" d="M435.118,210.116V197.734l-2.839,1.009v11.373a2.85,2.85,0,0,0,0,4.944v6.976a1.42,1.42,0,0,0,2.839,0V215.06a2.85,2.85,0,0,0,0-4.944Z" transform="translate(549.152 498.266)" fill="'none'"/>
    <path id="Path_410" data-name="Path 410" d="M119.692,227.216a4.248,4.248,0,0,1-1.426-.246l-12.822-4.558v6.247c0,1.528,1.594,2.821,4.739,3.841a33.463,33.463,0,0,0,19.018,0c3.144-1.021,4.739-2.313,4.739-3.841v-6.247l-12.821,4.558A4.249,4.249,0,0,1,119.692,227.216Z" transform="translate(840.557 481.588)" fill="'none'"/>
  </g>
</svg>
