<svg xmlns="http://www.w3.org/2000/svg" width="20.844" height="22.234" viewBox="0 0 20.844 22.234">
  <path id="Icon_metro-calendar" data-name="Icon metro-calendar" d="M9.519,10.266H12.3v2.779H9.519Zm4.169,0h2.779v2.779H13.688Zm4.169,0h2.779v2.779H17.856ZM5.35,18.6H8.129v2.779H5.35Zm4.169,0H12.3v2.779H9.519Zm4.169,0h2.779v2.779H13.688ZM9.519,14.434H12.3v2.779H9.519Zm4.169,0h2.779v2.779H13.688Zm4.169,0h2.779v2.779H17.856Zm-12.506,0H8.129v2.779H5.35ZM20.636,1.928v1.39H17.856V1.928H8.129v1.39H5.35V1.928H2.571V24.162H23.415V1.928H20.636Zm1.39,20.844H3.96V7.486H22.025Z" transform="translate(-2.571 -1.928)" fill="'none'"/>
</svg>
