<svg id="stage_1_1" data-name="stage(1)1" xmlns="http://www.w3.org/2000/svg" width="41.563" height="41.563" viewBox="0 0 41.563 41.563">
  <g id="Group_197" data-name="Group 197" transform="translate(15.586 34.635)">
    <g id="Group_196" data-name="Group 196">
      <path id="Path_414" data-name="Path 414" d="M199.793,426.667h-5.2a2.6,2.6,0,0,0-2.6,2.6v3.464a.866.866,0,0,0,.866.866h8.659a.866.866,0,0,0,.866-.866v-3.464A2.6,2.6,0,0,0,199.793,426.667Z" transform="translate(-192 -426.667)" fill="'none'"/>
    </g>
  </g>
  <g id="Group_199" data-name="Group 199" transform="translate(3.464 34.635)">
    <g id="Group_198" data-name="Group 198">
      <path id="Path_415" data-name="Path 415" d="M50.46,426.667h-5.2a2.6,2.6,0,0,0-2.6,2.6v3.464a.866.866,0,0,0,.866.866h8.659a.866.866,0,0,0,.866-.866v-3.464A2.6,2.6,0,0,0,50.46,426.667Z" transform="translate(-42.667 -426.667)" fill="'none'"/>
    </g>
  </g>
  <g id="Group_201" data-name="Group 201" transform="translate(27.708 34.635)">
    <g id="Group_200" data-name="Group 200">
      <path id="Path_416" data-name="Path 416" d="M349.126,426.667h-5.2a2.6,2.6,0,0,0-2.6,2.6v3.464a.866.866,0,0,0,.866.866h8.659a.866.866,0,0,0,.866-.866v-3.464A2.6,2.6,0,0,0,349.126,426.667Z" transform="translate(-341.333 -426.667)" fill="'none'"/>
    </g>
  </g>
  <g id="Group_203" data-name="Group 203" transform="translate(15.586 25.977)">
    <g id="Group_202" data-name="Group 202">
      <path id="Path_417" data-name="Path 417" d="M199.793,320h-5.2a2.6,2.6,0,0,0-2.6,2.6v3.463a.866.866,0,0,0,.866.866h8.659a.866.866,0,0,0,.866-.866V322.6A2.6,2.6,0,0,0,199.793,320Z" transform="translate(-192 -320)" fill="'none'"/>
    </g>
  </g>
  <g id="Group_205" data-name="Group 205" transform="translate(3.464 25.977)">
    <g id="Group_204" data-name="Group 204">
      <path id="Path_418" data-name="Path 418" d="M50.46,320h-5.2a2.6,2.6,0,0,0-2.6,2.6v3.463a.866.866,0,0,0,.866.866h8.659a.866.866,0,0,0,.866-.866V322.6A2.6,2.6,0,0,0,50.46,320Z" transform="translate(-42.667 -320)" fill="'none'"/>
    </g>
  </g>
  <g id="Group_207" data-name="Group 207" transform="translate(1.732)">
    <g id="Group_206" data-name="Group 206">
      <path id="Path_419" data-name="Path 419" d="M58.566,0H22.2a.866.866,0,0,0-.866.866V24.73a.867.867,0,0,0,1.446.644,4.306,4.306,0,0,1,2.883-1.129H28.53a.234.234,0,0,0,.035,0,.866.866,0,0,0,.866-.866.854.854,0,0,0-.13-.457,34.839,34.839,0,0,0-2.447-6.1C29.962,14.8,33.433,8.134,34.68,5.588a11.812,11.812,0,0,0,5.7,1.339,11.826,11.826,0,0,0,5.7-1.339c1.247,2.546,4.717,9.21,7.826,11.229a34.936,34.936,0,0,0-2.511,6.33.864.864,0,0,0,.833,1.1H55.1a4.306,4.306,0,0,1,2.883,1.129.867.867,0,0,0,1.446-.644V.866A.866.866,0,0,0,58.566,0Z" transform="translate(-21.333)" fill="'none'"/>
    </g>
  </g>
  <g id="Group_209" data-name="Group 209" transform="translate(27.708 25.977)">
    <g id="Group_208" data-name="Group 208">
      <path id="Path_420" data-name="Path 420" d="M349.126,320h-5.2a2.6,2.6,0,0,0-2.6,2.6v3.463a.866.866,0,0,0,.866.866h8.659a.866.866,0,0,0,.866-.866V322.6A2.6,2.6,0,0,0,349.126,320Z" transform="translate(-341.333 -320)" fill="'none'"/>
    </g>
  </g>
  <g id="Group_211" data-name="Group 211" transform="translate(7.793 20.781)">
    <g id="Group_210" data-name="Group 210">
      <path id="Path_421" data-name="Path 421" d="M121.111,256H96.866a.866.866,0,1,0,0,1.732h24.245a.866.866,0,1,0,0-1.732Z" transform="translate(-96 -256)" fill="'none'"/>
    </g>
  </g>
  <g id="Group_213" data-name="Group 213" transform="translate(38.099)">
    <g id="Group_212" data-name="Group 212">
      <path id="Path_422" data-name="Path 422" d="M471.931,0H470.2a.866.866,0,1,0,0,1.732h1.732a.866.866,0,1,0,0-1.732Z" transform="translate(-469.333)" fill="'none'"/>
    </g>
  </g>
  <g id="Group_215" data-name="Group 215" transform="translate(0)">
    <g id="Group_214" data-name="Group 214">
      <path id="Path_423" data-name="Path 423" d="M2.6,0H.866a.866.866,0,1,0,0,1.732H2.6A.866.866,0,1,0,2.6,0Z" transform="translate(0)" fill="'none'"/>
    </g>
  </g>
</svg>
