<svg id="tent_2_33" data-name="tent(2)33" xmlns="http://www.w3.org/2000/svg" width="55.462" height="37.1" viewBox="0 0 55.462 37.1">
  <g id="Group_183" data-name="Group 183" transform="translate(0 0)">
    <path id="Path_397" data-name="Path 397" d="M55.446,99.94a.965.965,0,0,0-.175-.4C55.146,99.4,45.91,87,40.042,77.179h0a.965.965,0,0,0-.965-.463,87.879,87.879,0,0,1-20.769-.608h-.116a.965.965,0,0,0-.878.463C17.208,76.754,6.37,94.724.338,99.907a.965.965,0,0,0,.618,1.7H3.291v7.422a.965.965,0,0,0,.869.965l32.263,3.214h.1a.965.965,0,0,0,.965-.888l15.258-4.275a.965.965,0,0,0,.7-.965v-5.791l1.226-.222A.965.965,0,0,0,55.446,99.94ZM19.775,88.451c1.438,6.543,3.571,14.476,6.09,18.337l-6.109-.56Zm1.12-3.976.019.01c3.3,6.109,8.493,14.756,13.782,19.813a.965.965,0,0,0,.791.261v3.166l-6.871-.676C25.9,105.533,22.844,94.184,20.894,84.475ZM4.3,99.7l.01.029H3.349C8.174,94.6,14.612,84.668,17.488,80.045c-.965,5.3-4.121,20.441-8.464,25.093l-3.783-.367v-4.1A.965.965,0,0,0,4.3,99.7ZM17.825,87.891v18.144l-6.5-.666C14.168,101.4,16.378,93.923,17.825,87.891Zm17.719,23.278L5.279,108.2v-1.486l4.063.4,4.825.473,8.2.8,5.906.579,7.267.714Zm15.963-4.758-14.052,3.9v-6.1l14.071-2.577ZM35.7,102.551c-6.756-6.7-13.511-19.707-15.818-24.282a89.907,89.907,0,0,0,18.848.4C43.555,86.637,50.31,96.037,52.8,99.414Z" transform="translate(0 -76.106)" fill="'none'"/>
  </g>
</svg>
